<?xml version="1.0" encoding="UTF-8"?>
<svg version="1.1" xmlns="http://www.w3.org/2000/svg" width="451" height="116">
<path d="M0 0 C2.4375 1.8125 2.4375 1.8125 4 4 C4 5.32 4 6.64 4 8 C4.66 8 5.32 8 6 8 C6.04125 7.071875 6.0825 6.14375 6.125 5.1875 C7 2 7 2 9.625 0.0625 C13.67473898 -1.21241783 15.93187642 -1.20536995 20 0 C22.5150608 2.12812837 23.73916282 3.66892367 24.37890625 6.93359375 C24.59075411 10.54867489 24.16492572 12.67702047 22.5 15.9375 C19.12642627 18.72069832 16.32971222 19.28349306 12 19 C9.0625 17.9375 9.0625 17.9375 7 16 C6.1875 12.8125 6.1875 12.8125 6 10 C5.34 10 4.68 10 4 10 C3.896875 10.763125 3.79375 11.52625 3.6875 12.3125 C2.91988882 15.3131619 2.55988914 16.29340724 0 18 C-4.06436855 19.07360679 -6.33206377 19.23944884 -10.3125 17.8125 C-13.10429148 15.92966388 -14.08860987 15.18986547 -15 12 C-15.49091901 7.38536126 -14.93113465 4.63864991 -12 1 C-7.88898985 -1.51228398 -4.58568083 -1.16726421 0 0 Z M-9 6 C-9.2502157 9.08365871 -9.2502157 9.08365871 -9 12 C-6.525 12.99 -6.525 12.99 -4 14 C-2.31318262 12.89958081 -2.31318262 12.89958081 -1 11 C-1.23283149 7.85078091 -1.23283149 7.85078091 -2 5 C-5.48581856 3.7979936 -5.67992344 3.78661563 -9 6 Z M14 4 C13.01 4.66 12.02 5.32 11 6 C11.33 8.31 11.66 10.62 12 13 C13.65 13 15.3 13 17 13 C17.33 12.01 17.66 11.02 18 10 C18.99 9.67 19.98 9.34 21 9 C20.01 8.67 19.02 8.34 18 8 C17.67 7.01 17.34 6.02 17 5 C16.01 4.67 15.02 4.34 14 4 Z " fill="#CE9649" transform="translate(182,52)"/>
<path d="M0 0 C1.65 0 3.3 0 5 0 C5.66 1.98 6.32 3.96 7 6 C7.309375 5.38125 7.61875 4.7625 7.9375 4.125 C8.625 2.75 9.3125 1.375 10 0 C11.98 0 13.96 0 16 0 C16.66 2.31 17.32 4.62 18 7 C18.66 4.69 19.32 2.38 20 0 C21.98 0 23.96 0 26 0 C26 2.31 26 4.62 26 7 C26.33 4.69 26.66 2.38 27 0 C28.98 0 30.96 0 33 0 C33 6.27 33 12.54 33 19 C27.375 19 27.375 19 24 17 C24 15.02 24 13.04 24 11 C23.01 13.64 22.02 16.28 21 19 C19.02 19 17.04 19 15 19 C14.34 16.36 13.68 13.72 13 11 C12.01 13.64 11.02 16.28 10 19 C8.02 19 6.04 19 4 19 C3.32713788 16.58490559 2.66153988 14.16819644 2 11.75 C1.71382812 10.72712891 1.71382812 10.72712891 1.421875 9.68359375 C0.50042956 6.29399088 0 3.54221024 0 0 Z M26 9 C27 13 27 13 27 13 Z " fill="#F4F8FB" transform="translate(225,52)"/>
<path d="M0 0 C1.51621033 0.38780513 3.02407419 0.80926348 4.5234375 1.2578125 C8.29507893 2.17039955 11.93156208 1.97244178 15.7890625 1.84765625 C18.07421875 1.875 18.07421875 1.875 20.07421875 2.875 C20.07421875 4.195 20.07421875 5.515 20.07421875 6.875 C18.42421875 6.875 16.77421875 6.875 15.07421875 6.875 C15.07421875 11.825 15.07421875 16.775 15.07421875 21.875 C13.42421875 21.875 11.77421875 21.875 10.07421875 21.875 C9.07421875 20.875 9.07421875 20.875 8.9765625 17.71484375 C8.98816406 16.42707031 8.99976563 15.13929687 9.01171875 13.8125 C9.02074219 12.52214844 9.02976563 11.23179688 9.0390625 9.90234375 C9.05066406 8.90332031 9.06226563 7.90429688 9.07421875 6.875 C7.75421875 6.875 6.43421875 6.875 5.07421875 6.875 C5.07421875 6.215 5.07421875 5.555 5.07421875 4.875 C4.41421875 4.875 3.75421875 4.875 3.07421875 4.875 C3.40421875 5.865 3.73421875 6.855 4.07421875 7.875 C3.75943429 9.21283393 3.42834219 10.54703709 3.07421875 11.875 C3.40421875 12.205 3.73421875 12.535 4.07421875 12.875 C4.44921875 15.1875 4.44921875 15.1875 4.07421875 17.875 C2.01171875 20.25 2.01171875 20.25 -0.92578125 21.875 C-4.42578125 22.0625 -4.42578125 22.0625 -7.92578125 20.875 C-11.29306975 17.78620905 -12.82456088 14.98842404 -13.23828125 10.4375 C-13.13515625 9.591875 -13.03203125 8.74625 -12.92578125 7.875 C-12.03890625 7.483125 -11.15203125 7.09125 -10.23828125 6.6875 C-6.79309848 5.06980975 -6.79309848 5.06980975 -4.61328125 2.0625 C-1.92578125 -0.125 -1.92578125 -0.125 0 0 Z M-5.92578125 13.875 C-5.59578125 14.865 -5.26578125 15.855 -4.92578125 16.875 C-3.93578125 16.875 -2.94578125 16.875 -1.92578125 16.875 C-1.92578125 16.215 -1.92578125 15.555 -1.92578125 14.875 C-3.24578125 14.545 -4.56578125 14.215 -5.92578125 13.875 Z " fill="#DD7D2E" transform="translate(146.92578125,49.125)"/>
<path d="M0 0 C11.45627093 -0.36955713 11.45627093 -0.36955713 13.90234375 1.29296875 C15.75762288 4.17822491 14.68798156 6.78941938 14 10 C13.67 10.99 13.34 11.98 13 13 C13.99 14.485 13.99 14.485 15 16 C15 16.99 15 17.98 15 19 C12.1875 19.3125 12.1875 19.3125 9 19 C7.125 16.5 7.125 16.5 6 14 C5.67 15.65 5.34 17.3 5 19 C3.35 19 1.7 19 0 19 C0 12.73 0 6.46 0 0 Z M5 4 C5.33 5.32 5.66 6.64 6 8 C6.99 7.67 7.98 7.34 9 7 C9 6.01 9 5.02 9 4 C7.68 4 6.36 4 5 4 Z " fill="#F5FBFC" transform="translate(260,52)"/>
<path d="M0 0 C1.79244141 0.01740234 1.79244141 0.01740234 3.62109375 0.03515625 C5.41740234 0.04869141 5.41740234 0.04869141 7.25 0.0625 C8.17683594 0.07410156 9.10367187 0.08570313 10.05859375 0.09765625 C10.05859375 1.41765625 10.05859375 2.73765625 10.05859375 4.09765625 C7.74859375 4.42765625 5.43859375 4.75765625 3.05859375 5.09765625 C3.05859375 5.42765625 3.05859375 5.75765625 3.05859375 6.09765625 C5.36859375 6.42765625 7.67859375 6.75765625 10.05859375 7.09765625 C10.05859375 8.41765625 10.05859375 9.73765625 10.05859375 11.09765625 C7.41859375 11.09765625 4.77859375 11.09765625 2.05859375 11.09765625 C2.05859375 12.08765625 2.05859375 13.07765625 2.05859375 14.09765625 C3.04859375 13.76765625 4.03859375 13.43765625 5.05859375 13.09765625 C7.74609375 13.53515625 7.74609375 13.53515625 10.05859375 14.09765625 C9.72859375 15.74765625 9.39859375 17.39765625 9.05859375 19.09765625 C-1.77907441 20.01783562 -1.77907441 20.01783562 -4.62890625 17.76171875 C-5.69140625 16.09765625 -5.69140625 16.09765625 -6.94140625 13.09765625 C-6.28140625 11.77765625 -5.62140625 10.45765625 -4.94140625 9.09765625 C-4.28140625 9.09765625 -3.62140625 9.09765625 -2.94140625 9.09765625 C-3.12703125 7.79828125 -3.31265625 6.49890625 -3.50390625 5.16015625 C-3.8203125 2.9453125 -3.8203125 2.9453125 -3.94140625 1.09765625 C-2.94140625 0.09765625 -2.94140625 0.09765625 0 0 Z " fill="#F3F8FA" transform="translate(279.94140625,51.90234375)"/>
<path d="M0 0 C1.65 0 3.3 0 5 0 C5.33 1.32 5.66 2.64 6 4 C6.350625 3.34 6.70125 2.68 7.0625 2 C9 0 9 0 12.6875 -0.25 C13.780625 -0.1675 14.87375 -0.085 16 0 C15.360625 0.9075 14.72125 1.815 14.0625 2.75 C11.83339164 6.18570782 11.83339164 6.18570782 11 10 C11.95553145 11.91506577 11.95553145 11.91506577 13.4375 13.625 C16 16.82288828 16 16.82288828 16 19 C13.25 19.3125 13.25 19.3125 10 19 C7.625 16.5 7.625 16.5 6 14 C5.67 15.65 5.34 17.3 5 19 C3.35 19 1.7 19 0 19 C0 12.73 0 6.46 0 0 Z " fill="#D3AF63" transform="translate(208,52)"/>
<path d="M0 0 C5.625 -0.25 5.625 -0.25 9 2 C9.66 2 10.32 2 11 2 C11 1.34 11 0.68 11 0 C12.98 0 14.96 0 17 0 C15.97059296 2.5735176 14.98936157 5.01885904 13.625 7.4375 C12.62990107 10.21313601 12.62990107 10.21313601 14.875 13.125 C15.926875 14.548125 15.926875 14.548125 17 16 C17 16.99 17 17.98 17 19 C14.625 19.125 14.625 19.125 12 19 C11.34 18.34 10.68 17.68 10 17 C7.21762345 17.40528901 7.21762345 17.40528901 5 19 C3.33382885 19.04063832 1.66611905 19.042721 0 19 C1.12451727 16.0280615 2.22293791 13.66559313 4 11 C3.69976598 7.0969577 2.38959997 5.01297387 0 2 C0 1.34 0 0.68 0 0 Z M4 2 C4.33 2.99 4.66 3.98 5 5 C5 4.01 5 3.02 5 2 C4.67 2 4.34 2 4 2 Z M6 5 C6.66 6.65 7.32 8.3 8 10 C8.33 9.01 8.66 8.02 9 7 C8.01 6.34 7.02 5.68 6 5 Z M7 10 C7 13 7 13 7 13 Z M5 13 C4.34 14.32 3.68 15.64 3 17 C3.66 17 4.32 17 5 17 C5.33 15.68 5.66 14.36 6 13 C5.67 13 5.34 13 5 13 Z " fill="#F2F7ED" transform="translate(295,52)"/>
<path d="M0 0 C0.9796875 -0.00257812 1.959375 -0.00515625 2.96875 -0.0078125 C5.5 0.125 5.5 0.125 7.5 1.125 C7.5 2.445 7.5 3.765 7.5 5.125 C5.85 5.125 4.2 5.125 2.5 5.125 C2.5 10.075 2.5 15.025 2.5 20.125 C0.85 20.125 -0.8 20.125 -2.5 20.125 C-3.5 19.125 -3.5 19.125 -3.59765625 15.96484375 C-3.58025391 14.03318359 -3.58025391 14.03318359 -3.5625 12.0625 C-3.55347656 10.77214844 -3.54445312 9.48179688 -3.53515625 8.15234375 C-3.52355469 7.15332031 -3.51195312 6.15429688 -3.5 5.125 C-4.82 5.125 -6.14 5.125 -7.5 5.125 C-7.5 3.805 -7.5 2.485 -7.5 1.125 C-4.89080172 -0.17959914 -2.91057385 -0.0076594 0 0 Z " fill="#C1803C" transform="translate(159.5,50.875)"/>
<path d="M0 0 C1 1 1 1 1.375 3.3125 C1 6 1 6 -1.0625 8.375 C-4 10 -4 10 -7.625 10.0625 C-11 9 -11 9 -12.9375 6.5 C-14 4 -14 4 -14 3 C-12.02 3 -10.04 3 -8 3 C-8 3.66 -8 4.32 -8 5 C-7.01 5 -6.02 5 -5 5 C-5 4.34 -5 3.68 -5 3 C-6.32 2.67 -7.64 2.34 -9 2 C-9 1.34 -9 0.68 -9 0 C-5.90842747 -1.54578627 -3.31526981 -0.60277633 0 0 Z " fill="#D07F36" transform="translate(150,61)"/>
<path d="M0 0 C2.58841637 2.19019846 3.85198477 3.68970129 4.23828125 7.109375 C4.24873401 9.07449466 4.1329252 11.03935331 4 13 C1.03 12.505 1.03 12.505 -2 12 C-2 11.34 -2 10.68 -2 10 C-1.34 9.67 -0.68 9.34 0 9 C-2.24743206 6.85164036 -2.24743206 6.85164036 -5 5 C-7.26424351 5.12563582 -7.26424351 5.12563582 -9 6 C-9 5.01 -9 4.02 -9 3 C-10.32 3.33 -11.64 3.66 -13 4 C-12 1 -12 1 -9.875 -0.25 C-6.13944361 -1.22449297 -3.72314407 -1.01540293 0 0 Z " fill="#D5A653" transform="translate(202,52)"/>
<path d="M0 0 C0.66 0 1.32 0 2 0 C3.80230168 3.82989106 4.19622241 6.78121808 4 11 C6.97 11.495 6.97 11.495 10 12 C10 12.66 10 13.32 10 14 C8.02 14.33 6.04 14.66 4 15 C6.475 15.99 6.475 15.99 9 17 C6.0201445 18.26070809 4.97683969 17.99119908 1.875 16.8125 C-1.08580815 14.94590356 -2.05758671 14.29844651 -3 11 C-3.49125091 6.3822414 -2.83296308 3.70464403 0 0 Z " fill="#C28B48" transform="translate(170,53)"/>
<path d="M0 0 C1.98 0 3.96 0 6 0 C4.97059296 2.5735176 3.98936157 5.01885904 2.625 7.4375 C1.62990107 10.21313601 1.62990107 10.21313601 3.875 13.125 C4.926875 14.548125 4.926875 14.548125 6 16 C6 16.99 6 17.98 6 19 C3.6875 19.25 3.6875 19.25 1 19 C-0.875 17.4375 -0.875 17.4375 -2 15 C-1.7397104 12.65739357 -1.40047444 10.32275177 -1 8 C-1.36887653 4.69285416 -1.36887653 4.69285416 -2 2 C-1.34 2 -0.68 2 0 2 C0 1.34 0 0.68 0 0 Z " fill="#D2A25B" transform="translate(306,52)"/>
<path d="M0 0 C0.66 0 1.32 0 2 0 C2 1.98 2 3.96 2 6 C3.98 5.34 5.96 4.68 8 4 C8.12375 5.3303125 8.12375 5.3303125 8.25 6.6875 C9.09664084 10.42683037 10.5324639 12.13447421 13 15 C13 15.66 13 16.32 13 17 C11.68 16.67 10.36 16.34 9 16 C9 14.68 9 13.36 9 12 C8.34 12 7.68 12 7 12 C7 11.34 7 10.68 7 10 C5.68 10 4.36 10 3 10 C2.67 11.98 2.34 13.96 2 16 C1.34 16 0.68 16 0 16 C0 10.72 0 5.44 0 0 Z " fill="#E9B34B" transform="translate(209,53)"/>
<path d="M0 0 C4.29 0 8.58 0 13 0 C13 1.32 13 2.64 13 4 C10.36 4.33 7.72 4.66 5 5 C4.67 6.65 4.34 8.3 4 10 C3.01 10 2.02 10 1 10 C0 3.375 0 3.375 0 0 Z " fill="#F8FAFB" transform="translate(277,52)"/>
<path d="M0 0 C1.98 0 3.96 0 6 0 C5.69542509 2.94422416 5.16507321 3.85920226 2.875 5.8125 C-0.79439779 7.32812083 -3.17481546 6.8250398 -7 6 C-7.33 4.68 -7.66 3.36 -8 2 C-5.36 2 -2.72 2 0 2 C0 1.34 0 0.68 0 0 Z " fill="#D9A547" transform="translate(199,64)"/>
<path d="M0 0 C2.97 0.495 2.97 0.495 6 1 C6 3.31 6 5.62 6 8 C6.66 8 7.32 8 8 8 C9.1577506 11.47325181 9.06866652 14.36067448 9 18 C7.68 17.67 6.36 17.34 5 17 C5 12.71 5 8.42 5 4 C3.35 4 1.7 4 0 4 C0 2.68 0 1.36 0 0 Z " fill="#DC8D37" transform="translate(152,52)"/>
<path d="M0 0 C1.32 0 2.64 0 4 0 C4 0.66 4 1.32 4 2 C4.66 2 5.32 2 6 2 C6 3.32 6 4.64 6 6 C7.32 6.33 8.64 6.66 10 7 C9.34 5.35 8.68 3.7 8 2 C9.37562854 3.28965176 10.70766393 4.62689293 12 6 C12 6.66 12 7.32 12 8 C9.25 8.3125 9.25 8.3125 6 8 C3.625 5.5 3.625 5.5 2 3 C1.67 4.65 1.34 6.3 1 8 C-0.65 8 -2.3 8 -4 8 C-2.68 7.67 -1.36 7.34 0 7 C0 4.69 0 2.38 0 0 Z " fill="#C3A767" transform="translate(212,63)"/>
<path d="M0 0 C2.97 0.495 2.97 0.495 6 1 C5.67 2.65 5.34 4.3 5 6 C2.69 6 0.38 6 -2 6 C-2 3 -2 3 0 0 Z " fill="#F5FCFE" transform="translate(284,65)"/>
<path d="M0 0 C0.33 0 0.66 0 1 0 C1.33 1.98 1.66 3.96 2 6 C4.97 6.495 4.97 6.495 8 7 C8 7.66 8 8.32 8 9 C6.02 9.33 4.04 9.66 2 10 C4.475 10.99 4.475 10.99 7 12 C5.375 12.6875 5.375 12.6875 3 13 C-0.25 11.5625 -0.25 11.5625 -3 10 C-2.34 9.67 -1.68 9.34 -1 9 C-0.53348793 6.87423218 -0.53348793 6.87423218 -0.375 4.4375 C-0.30023438 3.61121094 -0.22546875 2.78492188 -0.1484375 1.93359375 C-0.09945312 1.29550781 -0.05046875 0.65742187 0 0 Z " fill="#C08E4E" transform="translate(172,58)"/>
<path d="M0 0 C0.66 0 1.32 0 2 0 C2.433125 1.2065625 2.433125 1.2065625 2.875 2.4375 C3.73262568 5.1326468 3.73262568 5.1326468 6 6 C6 6.66 6 7.32 6 8 C4.00045254 8.04254356 1.99958364 8.04080783 0 8 C-1 7 -1 7 -1.125 4 C-1 1 -1 1 0 0 Z " fill="#450F05" transform="translate(135,56)"/>
<path d="M0 0 C0 2.64 0 5.28 0 8 C-2.97 7.505 -2.97 7.505 -6 7 C-6 6.34 -6 5.68 -6 5 C-5.34 4.67 -4.68 4.34 -4 4 C-4.66 3.67 -5.32 3.34 -6 3 C-6 2.34 -6 1.68 -6 1 C-1.125 0 -1.125 0 0 0 Z " fill="#7D6736" transform="translate(206,57)"/>
<path d="M0 0 C2 3.75 2 3.75 2 6 C3.65 6 5.3 6 7 6 C7 6.33 7 6.66 7 7 C4.69 7.33 2.38 7.66 0 8 C0 8.66 0 9.32 0 10 C-0.99 9.67 -1.98 9.34 -3 9 C-3 7.68 -3 6.36 -3 5 C-2.34 5 -1.68 5 -1 5 C-0.67 3.35 -0.34 1.7 0 0 Z " fill="#C0974D" transform="translate(192,59)"/>
<path d="M0 0 C1.98 0 3.96 0 6 0 C4.8141763 3.37503669 3.72426311 5.64722731 1 8 C0 7 0 7 -0.0625 3.4375 C-0.041875 2.303125 -0.02125 1.16875 0 0 Z " fill="#D89E4B" transform="translate(306,52)"/>
<path d="M0 0 C0.99 0.33 1.98 0.66 3 1 C3 4.3 3 7.6 3 11 C2.01 10.67 1.02 10.34 0 10 C0 6.7 0 3.4 0 0 Z " fill="#E4953E" transform="translate(169,57)"/>
<path d="M0 0 C1.98 0 3.96 0 6 0 C6 0.66 6 1.32 6 2 C6.99 2 7.98 2 9 2 C9.33 1.34 9.66 0.68 10 0 C10 0.99 10 1.98 10 3 C8.35 3 6.7 3 5 3 C5 3.99 5 4.98 5 6 C3.0625 5.25 3.0625 5.25 1 4 C0.25 1.875 0.25 1.875 0 0 Z " fill="#B77130" transform="translate(136,64)"/>
<path d="M0 0 C1 1 1 1 1.0625 3.5625 C1.041875 4.366875 1.02125 5.17125 1 6 C0.34 5.67 -0.32 5.34 -1 5 C-1 4.34 -1 3.68 -1 3 C-1.61875 3.185625 -2.2375 3.37125 -2.875 3.5625 C-5 4 -5 4 -7 3 C-7 2.34 -7 1.68 -7 1 C-4.51588385 -0.24205807 -2.74800896 -0.14092354 0 0 Z " fill="#DA7F2C" transform="translate(148,60)"/>
<path d="M0 0 C0.99 0.33 1.98 0.66 3 1 C2.67 1.66 2.34 2.32 2 3 C4.31 3.33 6.62 3.66 9 4 C8.34 4.66 7.68 5.32 7 6 C6.01 5.67 5.02 5.34 4 5 C3.01 5.33 2.02 5.66 1 6 C1 5.01 1 4.02 1 3 C-0.32 3.33 -1.64 3.66 -3 4 C-2.67 3.01 -2.34 2.02 -2 1 C-1.34 0.67 -0.68 0.34 0 0 Z " fill="#C59B55" transform="translate(192,52)"/>
<path d="M0 0 C0.99 0 1.98 0 3 0 C2.41196203 3.02419525 1.77321882 6.01758453 1 9 C0.34 9 -0.32 9 -1 9 C-1.09765625 2.84765625 -1.09765625 2.84765625 -1 1 C-0.67 0.67 -0.34 0.34 0 0 Z " fill="#E8A544" transform="translate(190,55)"/>
<path d="M0 0 C0.66 0 1.32 0 2 0 C1.34 1.65 0.68 3.3 0 5 C0.66 5.66 1.32 6.32 2 7 C1 8 1 8 -1.5625 8.0625 C-2.366875 8.041875 -3.17125 8.02125 -4 8 C-2.87548273 5.0280615 -1.77706209 2.66559313 0 0 Z " fill="#F2FCFD" transform="translate(299,63)"/>
<path d="M0 0 C1.2890625 1.4609375 1.2890625 1.4609375 2.625 3.375 C3.29402344 4.31472656 3.29402344 4.31472656 3.9765625 5.2734375 C5 7 5 7 5 9 C3.68 8.67 2.36 8.34 1 8 C1 6.68 1 5.36 1 4 C0.34 4 -0.32 4 -1 4 C-1 3.34 -1 2.68 -1 2 C-1.99 1.67 -2.98 1.34 -4 1 C-2 0 -2 0 0 0 Z " fill="#EEB958" transform="translate(217,61)"/>
<path d="M0 0 C2.31 0.66 4.62 1.32 7 2 C7 2.99 7 3.98 7 5 C2.545 4.01 2.545 4.01 -2 3 C-1.34 2.01 -0.68 1.02 0 0 Z " fill="#58361B" transform="translate(145,49)"/>
<path d="M0 0 C2.64 0.33 5.28 0.66 8 1 C7.67 2.32 7.34 3.64 7 5 C4.69 4.01 2.38 3.02 0 2 C0 1.34 0 0.68 0 0 Z " fill="#863804" transform="translate(142,56)"/>
<path d="M0 0 C7.42857143 -0.14285714 7.42857143 -0.14285714 11 1 C11 1.66 11 2.32 11 3 C7.7 3 4.4 3 1 3 C0.67 2.01 0.34 1.02 0 0 Z " fill="#E99B3B" transform="translate(172,53)"/>
<path d="M0 0 C1.98 0.495 1.98 0.495 4 1 C3.67 2.98 3.34 4.96 3 7 C1.68 5.68 0.36 4.36 -1 3 C-0.67 2.01 -0.34 1.02 0 0 Z " fill="#C5DEE2" transform="translate(274,62)"/>
<path d="M0 0 C2.875 0.25 2.875 0.25 6 1 C7.375 3.0625 7.375 3.0625 8 5 C6.02 5 4.04 5 2 5 C2.33 4.01 2.66 3.02 3 2 C2.01 1.34 1.02 0.68 0 0 Z " fill="#CF8337" transform="translate(143,52)"/>
<path d="M0 0 C0.66666667 2.66666667 1.33333333 5.33333333 2 8 C0.35 7.67 -1.3 7.34 -3 7 C-1.125 2.25 -1.125 2.25 0 0 Z " fill="#E4E9E2" transform="translate(303,62)"/>
<path d="M0 0 C2.475 0.99 2.475 0.99 5 2 C3 4 3 4 -0.125 4.125 C-1.548125 4.063125 -1.548125 4.063125 -3 4 C-2.01 2.68 -1.02 1.36 0 0 Z " fill="#DE7424" transform="translate(142,52)"/>
<path d="M0 0 C1.98 0 3.96 0 6 0 C5.625 1.9375 5.625 1.9375 5 4 C4.01 4.495 4.01 4.495 3 5 C2.67 4.01 2.34 3.02 2 2 C1.34 2 0.68 2 0 2 C0 1.34 0 0.68 0 0 Z " fill="#CFA658" transform="translate(199,64)"/>
<path d="M0 0 C0.66 0.99 1.32 1.98 2 3 C1.67 3.99 1.34 4.98 1 6 C0.01 4.35 -0.98 2.7 -2 1 C-1.34 0.67 -0.68 0.34 0 0 Z " fill="#BDC1CD" transform="translate(225,64)"/>
<path d="" fill="#D4D4D4" transform="translate(0,0)"/>
<path d="" fill="#B4C9C9" transform="translate(0,0)"/>
</svg>
